<?xml version="1.0" standalone="no"?>
<!DOCTYPE svg PUBLIC "-//W3C//DTD SVG 20010904//EN"
 "http://www.w3.org/TR/2001/REC-SVG-20010904/DTD/svg10.dtd">
<svg version="1.0" xmlns="http://www.w3.org/2000/svg"
 width="700.000000pt" height="700.000000pt" viewBox="0 0 700.000000 700.000000"
 preserveAspectRatio="xMidYMid meet">
<metadata>
Created by potrace 1.14, written by Peter Selinger 2001-2017
</metadata>
<g transform="translate(0.000000,700.000000) scale(0.100000,-0.100000)"
fill="#000000" stroke="none">
<path d="M3398 6664 c-2 -1 -34 -5 -73 -9 -280 -28 -684 -205 -1030 -451 -71
-50 -158 -116 -171 -129 -6 -5 -27 -21 -47 -35 -20 -14 -37 -28 -37 -32 0 -21
-23 -1 -72 65 -148 197 -368 363 -623 471 -278 118 -524 132 -623 34 -55 -53
-67 -114 -67 -338 0 -107 4 -233 8 -280 9 -90 9 -92 26 -215 5 -44 13 -100 16
-125 3 -25 10 -65 15 -90 5 -25 12 -65 16 -90 3 -24 7 -47 9 -50 2 -3 6 -22 9
-42 15 -96 70 -319 107 -432 l28 -89 -79 -96 c-190 -230 -283 -347 -334 -415
-237 -321 -391 -708 -441 -1106 -19 -155 -22 -195 -19 -280 12 -435 88 -718
269 -996 54 -83 156 -209 187 -232 26 -19 23 -25 -25 -74 -24 -24 -71 -75
-105 -114 -54 -62 -63 -78 -69 -122 -12 -106 81 -189 182 -161 35 10 44 18
184 167 l77 83 65 -47 c93 -69 209 -142 329 -207 58 -32 112 -62 120 -67 171
-104 995 -446 1435 -597 204 -69 471 -138 610 -158 23 -3 52 -8 65 -10 38 -8
238 -8 300 -1 327 42 637 138 1325 411 381 151 695 294 870 395 22 13 65 37
95 53 68 36 228 140 295 191 l49 38 61 -64 c33 -34 78 -84 100 -109 54 -62 85
-81 139 -81 110 0 173 99 132 207 -10 25 -23 48 -29 52 -7 5 -49 49 -95 100
l-82 91 40 44 c136 145 270 364 328 533 96 282 131 661 88 948 -3 20 -9 54
-12 75 -3 20 -7 46 -8 57 -25 175 -112 439 -210 635 -104 207 -158 284 -428
618 l-197 243 15 42 c34 94 99 353 129 512 16 88 35 195 39 230 3 22 10 74 16
115 6 41 13 98 16 125 2 28 7 64 9 80 3 17 7 125 10 240 6 283 -11 369 -84
419 -131 90 -405 54 -696 -91 -218 -109 -411 -267 -542 -443 -41 -54 -47 -59
-63 -48 -10 7 -72 54 -137 104 -65 49 -154 114 -198 142 -44 29 -84 56 -90 60
-45 34 -257 147 -375 200 -127 57 -347 120 -480 138 -51 6 -267 13 -272 8z"/>
</g>
</svg>
